# xmcd CD database file
#
# Track frame offsets:
#	150
#	16195
#	32395
#	49845
#	76290
#	89390
#	113565
#	138172
#	152245
#	170920
#	185957
#
# Disc length: 2775 seconds
#
# Revision: 0
# Processed by: cddbd v1.5.1PL2 Copyright (c) Steve Scherf et al.
# Submitted via: CDex 1.51
#
DISCID=870ad50b
DTITLE=Various Artist - Jazz City Christmas Vol.2
DYEAR=1989
DGENRE=Jazz
TTITLE0=01-Greensleeves
TTITLE1=02-It Came Upon A Midnight Clear
TTITLE2=03-Santa Claus Is Comin' To Town
TTITLE3=04-I Saw Mommy Kissing Santa Claus
TTITLE4=05-God Rest Ye Merry, Gentlemen
TTITLE5=06-White Christmas
TTITLE6=07-Frosty The Snowman
TTITLE7=08-Jingle bells 
TTITLE8=09-The First Noël
TTITLE9=10-I'll Be Home For Christmas
TTITLE10=11-Have Yourself A Merry Little Christmas
EXTD=YEAR: 1989
EXTT0=
EXTT1=
EXTT2=
EXTT3=
EXTT4=
EXTT5=
EXTT6=
EXTT7=
EXTT8=
EXTT9=
EXTT10=
PLAYORDER=
